<svg width="650" height="200" viewBox="0 0 650 200" fill="none" xmlns="http://www.w3.org/2000/svg">
<path d="M1.875 16.6862C1.875 12.2659 3.63095 8.02669 6.75655 4.90109C9.88216 1.77548 14.1214 0.0195313 18.5417 0.0195312H193.542C197.962 0.0195313 202.201 1.77548 205.327 4.90109C208.452 8.02669 210.208 12.2659 210.208 16.6862V181.27C210.208 185.69 208.452 189.929 205.327 193.055C202.201 196.18 197.962 197.936 193.542 197.936H18.5417C14.1214 197.936 9.88216 196.18 6.75655 193.055C3.63095 189.929 1.875 185.69 1.875 181.27V16.6862ZM26.6333 9.33203C22.2131 9.33203 17.9738 11.088 14.8482 14.2136C11.7226 17.3392 9.96667 21.5784 9.96667 25.9987V171.957C9.96667 176.377 11.7226 180.617 14.8482 183.742C17.9738 186.868 22.2131 188.624 26.6333 188.624H185.452C189.872 188.624 194.112 186.868 197.237 183.742C200.363 180.617 202.119 176.377 202.119 171.957V25.9987C202.119 21.5784 200.363 17.3392 197.237 14.2136C194.112 11.088 189.872 9.33203 185.452 9.33203H26.6333Z" fill="white"/>
<path d="M133.75 53.3328H55.1871C54.3747 53.3118 53.6027 52.9743 53.0356 52.3923C52.4684 51.8103 52.151 51.0298 52.151 50.2172C52.151 49.4046 52.4684 48.624 53.0356 48.042C53.6027 47.46 54.3747 47.1226 55.1871 47.1016H133.75C134.562 47.1226 135.334 47.46 135.901 48.042C136.468 48.624 136.786 49.4046 136.786 50.2172C136.786 51.0298 136.468 51.8103 135.901 52.3923C135.334 52.9743 134.562 53.3118 133.75 53.3328ZM85.7329 72.7911H55.1871C54.3605 72.7911 53.5678 72.4628 52.9833 71.8783C52.3988 71.2938 52.0704 70.5011 52.0704 69.6745C52.0704 68.8479 52.3988 68.0552 52.9833 67.4707C53.5678 66.8862 54.3605 66.5578 55.1871 66.5578H85.7329C86.5598 66.5578 87.3528 66.8863 87.9375 67.471C88.5222 68.0557 88.8506 68.8487 88.8506 69.6755C88.8506 70.5024 88.5222 71.2954 87.9375 71.8801C87.3528 72.4648 86.5598 72.7932 85.7329 72.7932V72.7911ZM112.368 111.779H55.185C54.3584 111.779 53.5657 111.45 52.9812 110.866C52.3967 110.281 52.0684 109.489 52.0684 108.662C52.0684 107.835 52.3967 107.043 52.9812 106.458C53.5657 105.874 54.3584 105.545 55.185 105.545H112.368C113.195 105.545 113.988 105.874 114.572 106.458C115.157 107.043 115.485 107.835 115.485 108.662C115.485 109.489 115.157 110.281 114.572 110.866C113.988 111.45 113.195 111.779 112.368 111.779ZM159.504 111.779H127.077C126.25 111.779 125.457 111.45 124.873 110.866C124.288 110.281 123.96 109.489 123.96 108.662C123.96 107.835 124.288 107.043 124.873 106.458C125.457 105.874 126.25 105.545 127.077 105.545H159.504C160.33 105.545 161.123 105.874 161.708 106.458C162.292 107.043 162.62 107.835 162.62 108.662C162.62 109.489 162.292 110.281 161.708 110.866C161.123 111.45 160.33 111.779 159.504 111.779ZM158.814 92.2557H55.1892C54.3829 92.2262 53.6194 91.8852 53.0594 91.3043C52.4994 90.7234 52.1865 89.948 52.1865 89.1411C52.1865 88.3343 52.4994 87.5589 53.0594 86.978C53.6194 86.3971 54.3829 86.0561 55.1892 86.0266H158.816C159.235 86.0113 159.652 86.0805 160.043 86.2301C160.435 86.3797 160.792 86.6067 161.093 86.8974C161.395 87.1881 161.635 87.5367 161.799 87.9222C161.962 88.3077 162.047 88.7223 162.047 89.1411C162.047 89.56 161.962 89.9746 161.799 90.3601C161.635 90.7456 161.395 91.0942 161.093 91.3849C160.792 91.6756 160.435 91.9026 160.043 92.0522C159.652 92.2018 159.233 92.271 158.814 92.2557Z" fill="white"/>
<path d="M43.4374 60.8602C42.6186 60.8602 41.7999 60.5394 41.1874 59.8977L33.9895 52.3727C33.4367 51.7943 33.1275 51.0255 33.126 50.2254C33.1244 49.4254 33.4306 48.6553 33.9811 48.0748L41.0853 40.579C41.6614 40.0122 42.4351 39.6913 43.2432 39.6837C44.0513 39.6762 44.8308 39.9826 45.4174 40.5384C46.0041 41.0943 46.3521 41.8562 46.388 42.6635C46.424 43.4709 46.1452 44.2606 45.6103 44.8665L40.5457 50.2102L45.6957 55.5894C46.1151 56.032 46.3957 56.5877 46.503 57.188C46.6103 57.7882 46.5395 58.4067 46.2993 58.9672C46.0592 59.5277 45.6602 60.0056 45.1516 60.342C44.6431 60.6784 44.0471 60.8585 43.4374 60.8602ZM43.4374 138.677C42.6186 138.677 41.7999 138.356 41.1874 137.716L33.9895 130.189C33.437 129.61 33.1281 128.841 33.1266 128.041C33.125 127.241 33.431 126.471 33.9811 125.889L41.0853 118.398C41.6536 117.797 42.4371 117.447 43.2634 117.425C44.0897 117.402 44.8912 117.709 45.4916 118.277C46.0919 118.845 46.4419 119.629 46.4645 120.455C46.4872 121.281 46.1807 122.083 45.6124 122.683L40.5457 128.023L45.6957 133.402C46.1185 133.844 46.402 134.4 46.5111 135.001C46.6203 135.603 46.5502 136.224 46.3095 136.786C46.0689 137.348 45.6683 137.827 45.1577 138.163C44.647 138.499 44.0488 138.678 43.4374 138.677ZM141.867 158.154C141.257 158.154 140.66 157.976 140.151 157.641C139.642 157.306 139.242 156.828 139.001 156.268C138.76 155.708 138.689 155.09 138.796 154.489C138.903 153.889 139.184 153.334 139.604 152.891L144.669 147.554L139.523 142.169C139.224 141.876 138.988 141.526 138.827 141.141C138.667 140.755 138.586 140.341 138.588 139.923C138.591 139.505 138.678 139.092 138.843 138.709C139.009 138.325 139.25 137.979 139.552 137.69C139.854 137.401 140.211 137.176 140.602 137.028C140.992 136.88 141.409 136.813 141.826 136.829C142.244 136.845 142.654 136.945 143.032 137.123C143.41 137.301 143.748 137.553 144.027 137.864L151.225 145.394C152.371 146.594 152.375 148.483 151.235 149.689L144.129 157.185C143.517 157.825 142.692 158.154 141.867 158.154ZM170.823 118.648C170.214 118.648 169.618 118.469 169.109 118.134C168.6 117.799 168.2 117.322 167.96 116.762C167.719 116.203 167.647 115.585 167.754 114.985C167.861 114.385 168.141 113.83 168.56 113.387L173.623 108.046L168.477 102.669C167.917 102.069 167.616 101.273 167.639 100.453C167.661 99.6331 168.007 98.8552 168.6 98.2882C169.192 97.7211 169.985 97.4107 170.805 97.4242C171.625 97.4377 172.407 97.774 172.981 98.3602L180.179 105.883C181.325 107.083 181.331 108.973 180.189 110.181L173.085 117.675C172.473 118.325 171.648 118.648 170.823 118.648Z" fill="#6129FF"/>
<path d="M95.0246 131.171H55.1871C54.3611 131.171 53.5689 130.843 52.9848 130.259C52.4007 129.675 52.0725 128.883 52.0725 128.057C52.0725 127.231 52.4007 126.439 52.9848 125.854C53.5689 125.27 54.3611 124.942 55.1871 124.942H95.0246C95.4432 124.927 95.8606 124.996 96.2518 125.146C96.6431 125.295 97.0001 125.522 97.3017 125.813C97.6033 126.104 97.8431 126.452 98.0069 126.838C98.1708 127.223 98.2552 127.638 98.2552 128.057C98.2552 128.476 98.1708 128.89 98.0069 129.276C97.8431 129.661 97.6033 130.01 97.3017 130.301C97.0001 130.591 96.6431 130.818 96.2518 130.968C95.8606 131.117 95.4432 131.187 95.0246 131.171ZM158.812 131.163H109.679C108.852 131.163 108.059 130.835 107.475 130.25C106.89 129.666 106.562 128.873 106.562 128.046C106.562 127.22 106.89 126.427 107.475 125.843C108.059 125.258 108.852 124.93 109.679 124.93H158.816C159.643 124.93 160.436 125.258 161.02 125.843C161.605 126.427 161.933 127.22 161.933 128.046C161.933 128.873 161.605 129.666 161.02 130.25C160.436 130.835 159.643 131.163 158.816 131.163H158.812ZM130.902 150.644H55.1871C54.36 150.644 53.5667 150.316 52.9818 149.731C52.3969 149.146 52.0684 148.353 52.0684 147.526C52.0684 146.698 52.3969 145.905 52.9818 145.32C53.5667 144.735 54.36 144.407 55.1871 144.407H130.904C131.313 144.407 131.719 144.488 132.097 144.644C132.475 144.801 132.819 145.031 133.108 145.321C133.397 145.61 133.627 145.954 133.784 146.332C133.94 146.711 134.021 147.116 134.02 147.526C134.02 147.935 133.94 148.34 133.783 148.719C133.626 149.097 133.396 149.44 133.107 149.73C132.817 150.019 132.473 150.249 132.095 150.405C131.717 150.562 131.311 150.644 130.902 150.644Z" fill="white"/>
<path d="M280.959 50.1107C288.204 50.1107 294.648 51.5773 300.292 54.5107C305.982 57.4003 310.559 61.3544 314.025 66.3773C317.538 71.3982 319.604 77.0648 320.225 83.3773H299.825C299.204 80.044 298.071 77.0878 296.425 74.5107C294.837 71.9412 292.609 69.8279 289.959 68.3773C287.292 66.8669 284.092 66.1107 280.359 66.1107C275.871 66.1107 272.004 67.2003 268.759 69.3773C265.515 71.5544 263.025 75.0648 261.292 79.9107C259.559 84.7544 258.692 91.1544 258.692 99.1107C258.692 111.111 260.604 119.798 264.425 125.177C268.292 130.511 273.605 133.177 280.359 133.177C284.092 133.177 287.292 132.334 289.959 130.644C292.619 128.918 294.835 126.588 296.425 123.844C298.089 120.952 299.239 117.795 299.825 114.511H320.225C319.668 119.011 318.549 123.423 316.892 127.644C315.273 131.739 312.898 135.493 309.892 138.711C306.871 141.954 302.982 144.511 298.225 146.377C293.471 148.244 287.715 149.177 280.959 149.177C271.982 149.177 264.225 147.088 257.692 142.911C251.159 138.734 246.115 132.867 242.559 125.311C239.048 117.754 237.292 108.934 237.292 98.844C237.292 88.7107 239.048 80.0211 242.559 72.7773C246.071 65.4878 251.092 59.8878 257.625 55.9773C264.159 52.0669 271.938 50.1107 280.959 50.1107ZM364.79 149.177C358.034 149.177 352.146 147.734 347.123 144.844C342.146 141.954 338.279 137.865 335.523 132.577C332.813 127.288 331.457 121.021 331.457 113.777C331.457 106.534 332.813 100.2 335.523 94.7773C338.279 89.3544 342.146 85.1315 347.123 82.1107C352.146 79.0898 358.057 77.5773 364.857 77.5773C371.657 77.5773 377.546 79.0669 382.523 82.044C387.5 84.9773 391.346 89.1544 394.057 94.5773C396.767 100 398.123 106.4 398.123 113.777C398.123 120.711 396.79 126.844 394.123 132.177C391.5 137.467 387.7 141.621 382.723 144.644C377.79 147.665 371.813 149.177 364.79 149.177ZM364.857 134.711C368.279 134.711 371.034 133.711 373.123 131.711C375.213 129.711 376.723 127.088 377.657 123.844C378.634 120.554 379.123 116.977 379.123 113.111C379.123 109.465 378.68 106.021 377.79 102.777C376.946 99.5336 375.48 96.9107 373.39 94.9107C371.3 92.9107 368.457 91.9107 364.857 91.9107C361.434 91.9107 358.657 92.8669 356.523 94.7773C354.434 96.644 352.9 99.2003 351.923 102.444C350.946 105.644 350.457 109.2 350.457 113.111C350.457 116.711 350.9 120.177 351.79 123.511C352.679 126.8 354.167 129.49 356.257 131.577C358.346 133.667 361.213 134.711 364.857 134.711ZM449.5 149.177C446.079 149.177 443.123 148.734 440.634 147.844C438.146 146.954 436.034 145.777 434.3 144.311C432.63 142.873 431.191 141.186 430.034 139.311C428.952 137.551 428.08 135.672 427.434 133.711L425.234 147.844H411.1V48.7773H430.634V88.244C431.524 86.7202 432.623 85.3289 433.9 84.1107C435.298 82.7751 436.867 81.6318 438.567 80.7107C440.346 79.7315 442.3 78.9773 444.434 78.444C446.697 77.8555 449.028 77.5642 451.367 77.5773C459.946 77.5773 466.657 80.6669 471.5 86.844C476.39 93.0211 478.834 101.734 478.834 112.977C478.834 120.267 477.723 126.623 475.5 132.044C473.28 137.467 469.99 141.69 465.634 144.711C461.28 147.69 455.9 149.177 449.5 149.177ZM445.234 135.177C449.413 135.177 452.879 133.467 455.634 130.044C458.434 126.577 459.834 120.8 459.834 112.711C459.834 105.554 458.5 100.267 455.834 96.844C453.213 93.4211 449.634 91.7107 445.1 91.7107C441.857 91.7107 439.167 92.4878 437.034 94.044C434.9 95.5544 433.3 97.8669 432.234 100.977C431.213 104.088 430.679 107.998 430.634 112.711C430.634 120.844 431.834 126.621 434.234 130.044C436.68 133.467 440.346 135.177 445.234 135.177ZM511.44 149.177C507.04 149.177 503.084 148.354 499.573 146.711C496.063 145.065 493.284 142.69 491.24 139.577C489.196 136.421 488.173 132.598 488.173 128.111C488.173 120.554 490.996 114.821 496.64 110.911C502.284 106.954 511.196 104.911 523.373 104.777L531.973 104.644V100.511C531.973 97.3544 531.04 94.9336 529.173 93.244C527.35 91.5107 524.507 90.6669 520.64 90.7107C517.812 90.7512 515.031 91.4352 512.507 92.7107C509.973 94.0003 508.24 96.244 507.307 99.444H491.107C491.373 94.4648 492.817 90.3773 495.44 87.1773C498.063 83.9336 501.617 81.5315 506.107 79.9773C510.64 78.3773 515.773 77.5773 521.507 77.5773C528.573 77.5773 534.24 78.4669 538.507 80.244C542.773 81.9773 545.863 84.4878 547.773 87.7773C549.684 91.0211 550.64 94.8878 550.64 99.3773V147.844H534.373L532.773 135.977C530.417 140.956 527.463 144.4 523.907 146.311C520.396 148.221 516.24 149.177 511.44 149.177ZM517.973 136.377C519.75 136.377 521.463 136.065 523.107 135.444C524.724 134.819 526.231 133.942 527.573 132.844C528.851 131.798 529.935 130.534 530.773 129.111C531.573 127.734 531.973 126.311 531.973 124.844V114.644L524.973 114.777C521.73 114.821 518.707 115.221 515.907 115.977C513.107 116.688 510.84 117.867 509.107 119.511C507.417 121.157 506.573 123.377 506.573 126.177C506.573 129.377 507.684 131.888 509.907 133.711C512.13 135.488 514.817 136.377 517.973 136.377ZM589.871 149.044C584.805 149.044 580.784 148.444 577.805 147.244C574.827 146.044 572.627 144.467 571.205 142.511C569.799 140.55 568.864 138.291 568.471 135.911C568.071 133.464 567.87 130.99 567.871 128.511V48.7773H586.938V126.111C586.938 128.644 587.471 130.711 588.538 132.311C589.65 133.867 591.717 134.821 594.738 135.177L598.005 135.377V147.377C596.671 147.821 595.317 148.2 593.938 148.511C592.61 148.86 591.244 149.039 589.871 149.044ZM649.325 92.444H633.992L634.125 129.177C634.125 130.865 634.325 132.134 634.725 132.977C635.169 133.777 635.836 134.311 636.725 134.577C637.659 134.8 638.836 134.911 640.259 134.911H649.525V146.911C648.636 147.311 647.236 147.688 645.325 148.044C643.459 148.398 640.836 148.577 637.459 148.577C631.415 148.577 626.725 147.8 623.392 146.244C620.102 144.688 617.815 142.511 616.525 139.711C615.236 136.911 614.592 133.667 614.592 129.977V92.444H603.392V78.9107H615.259L620.125 58.1107H633.992V78.844H649.325V92.444Z" fill="white"/>
</svg>
