<svg width="312" height="96" viewBox="0 0 312 96" fill="none" xmlns="http://www.w3.org/2000/svg">
    <path d="M.9 8.01a8 8 0 0 1 8-8h84a8 8 0 0 1 8 8v79a8 8 0 0 1-8 8h-84a8 8 0 0 1-8-8v-79zm11.884-3.53a8 8 0 0 0-8 8v70.06a8 8 0 0 0 8 8h76.233a8 8 0 0 0 8-8V12.48a8 8 0 0 0-8-8H12.784z" fill="#111"/>
    <path d="M64.2 25.6H26.49a1.496 1.496 0 0 1 0-2.991H64.2a1.496 1.496 0 0 1 0 2.991zM41.152 34.94H26.49a1.496 1.496 0 0 1 0-2.992h14.662a1.496 1.496 0 1 1 0 2.993zM53.937 53.654H26.489a1.495 1.495 0 0 1 0-2.992h27.448a1.496 1.496 0 1 1 0 2.992zM76.562 53.654H60.997a1.495 1.495 0 0 1 0-2.992h15.565a1.496 1.496 0 0 1 0 2.992zM76.231 44.283h-49.74a1.496 1.496 0 0 1 0-2.99h49.741a1.496 1.496 0 1 1 0 2.99z" fill="#111"/>
    <path d="M20.85 29.212c-.393 0-.786-.154-1.08-.462l-3.455-3.612a1.496 1.496 0 0 1-.004-2.063l3.41-3.598a1.497 1.497 0 0 1 2.172 2.058L19.462 24.1l2.472 2.582a1.499 1.499 0 0 1-1.084 2.53zM20.85 66.564c-.393 0-.786-.154-1.08-.461l-3.455-3.613a1.498 1.498 0 0 1-.004-2.064l3.41-3.596a1.496 1.496 0 0 1 2.173 2.057l-2.432 2.563 2.472 2.582a1.497 1.497 0 0 1-1.084 2.532zM68.096 75.913a1.496 1.496 0 0 1-1.086-2.526l2.431-2.562-2.47-2.585a1.496 1.496 0 1 1 2.162-2.066l3.455 3.614c.55.576.552 1.483.005 2.062l-3.411 3.598c-.294.307-.69.465-1.086.465zM81.995 56.95a1.496 1.496 0 0 1-1.086-2.525l2.43-2.564-2.47-2.581a1.496 1.496 0 0 1 2.162-2.068l3.455 3.611c.55.576.553 1.483.005 2.063l-3.41 3.597c-.294.312-.69.468-1.086.468z" fill="#6129FF"/>
    <path d="M45.612 62.963H26.49a1.495 1.495 0 1 1 0-2.99h19.122a1.496 1.496 0 1 1 0 2.99zM76.23 62.959H52.646a1.496 1.496 0 1 1 0-2.992h23.586a1.496 1.496 0 1 1 0 2.992zM62.833 72.31H26.49a1.496 1.496 0 0 1 0-2.994h36.344a1.496 1.496 0 1 1-.001 2.993z" fill="#111"/>
    <path d="M134.86 24.054c3.478 0 6.571.704 9.28 2.112 2.731 1.387 4.928 3.285 6.592 5.696 1.686 2.41 2.678 5.13 2.976 8.16h-9.792c-.298-1.6-.842-3.019-1.632-4.256a8.38 8.38 0 0 0-3.104-2.944c-1.28-.725-2.816-1.088-4.608-1.088-2.154 0-4.01.523-5.568 1.568-1.557 1.045-2.752 2.73-3.584 5.056-.832 2.325-1.248 5.397-1.248 9.216 0 5.76.918 9.93 2.752 12.512 1.856 2.56 4.406 3.84 7.648 3.84 1.792 0 3.328-.405 4.608-1.216a9.676 9.676 0 0 0 3.104-3.264 13.88 13.88 0 0 0 1.632-4.48h9.792a25.997 25.997 0 0 1-1.6 6.304 16.869 16.869 0 0 1-3.36 5.312c-1.45 1.557-3.317 2.784-5.6 3.68-2.282.896-5.045 1.344-8.288 1.344-4.309 0-8.032-1.003-11.168-3.008-3.136-2.005-5.557-4.821-7.264-8.448-1.685-3.627-2.528-7.861-2.528-12.704 0-4.864.843-9.035 2.528-12.512 1.686-3.499 4.096-6.187 7.232-8.064 3.136-1.877 6.87-2.816 11.2-2.816zM175.099 71.606c-3.243 0-6.069-.693-8.48-2.08-2.389-1.387-4.245-3.35-5.568-5.888-1.301-2.539-1.952-5.547-1.952-9.024 0-3.477.651-6.517 1.952-9.12 1.323-2.603 3.179-4.63 5.568-6.08 2.411-1.45 5.248-2.176 8.512-2.176 3.264 0 6.091.715 8.48 2.144 2.389 1.408 4.235 3.413 5.536 6.016 1.301 2.603 1.952 5.675 1.952 9.216 0 3.328-.64 6.272-1.92 8.832-1.259 2.539-3.083 4.533-5.472 5.984-2.368 1.45-5.237 2.176-8.608 2.176zm.032-6.944c1.643 0 2.965-.48 3.968-1.44 1.003-.96 1.728-2.219 2.176-3.776.469-1.579.704-3.296.704-5.152 0-1.75-.213-3.403-.64-4.96-.405-1.557-1.109-2.816-2.112-3.776-1.003-.96-2.368-1.44-4.096-1.44-1.643 0-2.976.459-4 1.376-1.003.896-1.739 2.123-2.208 3.68-.469 1.536-.704 3.243-.704 5.12 0 1.728.213 3.392.64 4.992.427 1.579 1.141 2.87 2.144 3.872 1.003 1.003 2.379 1.504 4.128 1.504zM215.76 71.606c-1.642 0-3.061-.213-4.256-.64-1.194-.427-2.208-.992-3.04-1.696a10.309 10.309 0 0 1-2.048-2.4 12.754 12.754 0 0 1-1.248-2.688l-1.056 6.784h-6.784V23.414h9.376v18.944a9.054 9.054 0 0 1 1.568-1.984 10.448 10.448 0 0 1 2.24-1.632c.854-.47 1.792-.832 2.816-1.088a12.938 12.938 0 0 1 3.328-.416c4.118 0 7.339 1.483 9.664 4.448 2.347 2.965 3.52 7.147 3.52 12.544 0 3.499-.533 6.55-1.6 9.152-1.066 2.603-2.645 4.63-4.736 6.08-2.09 1.43-4.672 2.144-7.744 2.144zm-2.048-6.72c2.006 0 3.67-.821 4.992-2.464 1.344-1.664 2.016-4.437 2.016-8.32 0-3.435-.64-5.973-1.92-7.616-1.258-1.643-2.976-2.464-5.152-2.464-1.557 0-2.848.373-3.872 1.12-1.024.725-1.792 1.835-2.304 3.328-.49 1.493-.746 3.37-.768 5.632 0 3.904.576 6.677 1.728 8.32 1.174 1.643 2.934 2.464 5.28 2.464zM245.491 71.606c-2.112 0-4.011-.395-5.696-1.184-1.685-.79-3.019-1.93-4-3.424-.981-1.515-1.472-3.35-1.472-5.504 0-3.627 1.355-6.379 4.064-8.256 2.709-1.899 6.987-2.88 12.832-2.944l4.128-.064v-1.984c0-1.515-.448-2.677-1.344-3.488-.875-.832-2.24-1.237-4.096-1.216a8.94 8.94 0 0 0-3.904.96c-1.216.619-2.048 1.696-2.496 3.232h-7.776c.128-2.39.821-4.352 2.08-5.888 1.259-1.557 2.965-2.71 5.12-3.456 2.176-.768 4.64-1.152 7.392-1.152 3.392 0 6.112.427 8.16 1.28 2.048.832 3.531 2.037 4.448 3.616.917 1.557 1.376 3.413 1.376 5.568v23.264h-7.808l-.768-5.696c-1.131 2.39-2.549 4.043-4.256 4.96-1.685.917-3.68 1.376-5.984 1.376zm3.136-6.144c.853 0 1.675-.15 2.464-.448a7.86 7.86 0 0 0 2.144-1.248 6.735 6.735 0 0 0 1.536-1.792c.384-.661.576-1.344.576-2.048V55.03l-3.36.064c-1.557.021-3.008.213-4.352.576-1.344.341-2.432.907-3.264 1.696-.811.79-1.216 1.856-1.216 3.2 0 1.536.533 2.741 1.6 3.616 1.067.853 2.357 1.28 3.872 1.28zM283.138 71.542c-2.432 0-4.362-.288-5.792-.864-1.429-.576-2.485-1.333-3.168-2.272a7.547 7.547 0 0 1-1.312-3.168 21.958 21.958 0 0 1-.288-3.552V23.414h9.152v37.12c0 1.216.256 2.208.768 2.976.534.747 1.526 1.205 2.976 1.376l1.568.096v5.76c-.64.213-1.29.395-1.952.544a7.788 7.788 0 0 1-1.952.256zM311.676 44.374h-7.36l.064 17.632c0 .81.096 1.419.288 1.824.213.384.533.64.96.768.448.107 1.013.16 1.696.16h4.448v5.76c-.427.192-1.099.373-2.016.544-.896.17-2.155.256-3.776.256-2.901 0-5.152-.373-6.752-1.12-1.579-.747-2.677-1.792-3.296-3.136-.619-1.344-.928-2.901-.928-4.672V44.374h-5.376v-6.496h5.696l2.336-9.984h6.656v9.952h7.36v6.528z" fill="#000"/>
</svg>
